PathFileType	4	(X/Y/Z)	/Users/itak/Documents/Research/Walk-IL/dataset/trc/00427_00167.trc
DataRate	CameraRate	NumFrames	NumMarkers	Units	OrigDataRate	OrigDataStartFrame	OrigNumFrames
100.000000	100.000000	4	53	mm	100.000000	162	651
Frame#	Time	RPSI			LPSI			L3			STRN			T10			C7			CLAV			RBAK			LBAK			LSHO			LUPA			LAEL			LAOL			LWTS			LWPS			LFRA			LIFD			LHPS			LHTS			RSHO			RUPA			RAEL			RAOL			RWTS			RWPS			RFRA			RIFD			RHTS			RHPS			RBHD			LFHD			RFHD			LBHD			LHIP			RHIP			RASI			LASI			LKNE			LTHI			LANK			LTIP			LTOE			LMT1			LMT5			LHEE			RKNE			RTHI			RANK			RTIP			RTOE			RMT1			RMT5			RHEE			
		X1	Y1	Z1	X2	Y2	Z2	X3	Y3	Z3	X4	Y4	Z4	X5	Y5	Z5	X6	Y6	Z6	X7	Y7	Z7	X8	Y8	Z8	X9	Y9	Z9	X10	Y10	Z10	X11	Y11	Z11	X12	Y12	Z12	X13	Y13	Z13	X14	Y14	Z14	X15	Y15	Z15	X16	Y16	Z16	X17	Y17	Z17	X18	Y18	Z18	X19	Y19	Z19	X20	Y20	Z20	X21	Y21	Z21	X22	Y22	Z22	X23	Y23	Z23	X24	Y24	Z24	X25	Y25	Z25	X26	Y26	Z26	X27	Y27	Z27	X28	Y28	Z28	X29	Y29	Z29	X30	Y30	Z30	X31	Y31	Z31	X32	Y32	Z32	X33	Y33	Z33	X34	Y34	Z34	X35	Y35	Z35	X36	Y36	Z36	X37	Y37	Z37	X38	Y38	Z38	X39	Y39	Z39	X40	Y40	Z40	X41	Y41	Z41	X42	Y42	Z42	X43	Y43	Z43	X44	Y44	Z44	X45	Y45	Z45	X46	Y46	Z46	X47	Y47	Z47	X48	Y48	Z48	X49	Y49	Z49	X50	Y50	Z50	X51	Y51	Z51	X52	Y52	Z52	X53	Y53	Z53	

163	1.62	-1129.234619140625	953.4608764648438	-494.0865783691406	-1049.249755859375	956.9310913085938	-611.3795776367188	-1086.97216796875	1062.035278320312	-545.7918701171875	-851.7678833007812	1241.240234375	-400.427734375	-1089.970092773438	1186.952514648438	-559.476318359375	-1033.325927734375	1453.26416015625	-507.8895568847656	-876.8079833984375	1356.612426757812	-420.4557189941406	-1141.774780273438	1335.802490234375	-464.7947082519531	-1001.23388671875	1406.341552734375	-611.7066650390625	-868.1759033203125	1417.049438476562	-613.6847534179688	-813.1898193359375	1297.575927734375	-697.7498168945312	-779.4495239257812	1076.28369140625	-703.8672485351562	-882.5887451171875	1066.20751953125	-712.2642822265625	-762.0399169921875	868.4539184570312	-623.0296020507812	-757.6696166992188	855.2942504882812	-696.272705078125	-761.4356079101562	987.5187377929688	-698.893798828125	-769.02685546875	698.9115600585938	-631.182373046875	-759.5841674804688	774.3726196289062	-694.3488159179688	-750.781005859375	777.1358642578125	-623.7749633789062	-1062.389038085938	1412.785400390625	-333.3340759277344	-1121.449462890625	1353.269897460938	-281.4697265625	-1173.185546875	1069.100463867188	-236.5269927978516	-1197.227294921875	1054.775024414062	-298.6290893554688	-1074.428955078125	862.6192016601562	-222.2771148681641	-1160.587158203125	850.1884155273438	-211.5238189697266	-1177.902709960938	1010.425354003906	-227.1439361572266	-1083.0732421875	703.662109375	-217.9295043945312	-1071.687866210938	762.4707641601562	-204.1671905517578	-1148.297607421875	762.5272827148438	-205.0333251953125	-1003.619506835938	1643.355834960938	-389.3114929199219	-805.6329345703125	1652.376953125	-450.6356201171875	-874.7353515625	1656.171875	-339.3802185058594	-922.7750244140625	1643.3974609375	-548.18115234375	-873.2947387695312	848.0579833984375	-633.923828125	-1094.16552734375	869.9157104492188	-296.4109191894531	-981.7975463867188	917.2119750976562	-313.6930236816406	-830.18505859375	889.5317993164062	-517.1878051757812	-935.300048828125	427.5517883300781	-582.8990478515625	-885.1436767578125	577.217529296875	-592.7327880859375	-1039.78564453125	32.64693450927734	-597.7591552734375	-956.2160034179688	273.8381042480469	-584.1871948242188	-905.7623291015625	49.75622177124023	-405.8921203613281	-981.5299682617188	53.43301773071289	-430.3173522949219	-913.6026611328125	49.07429504394531	-518.171142578125	-1114.565307617188	32.90060043334961	-592.1769409179688	-927.295166015625	520.2740478515625	-206.3740081787109	-1015.532470703125	760.938232421875	-239.68994140625	-1039.8212890625	112.1752700805664	-289.9675903320312	-965.4114379882812	375.7290954589844	-214.5660247802734	-845.4248657226562	77.68251037597656	-198.0756072998047	-871.2045288085938	91.85544586181641	-264.4612731933594	-950.3180541992188	88.50618743896484	-194.3285980224609	-1063.643920898438	118.7012023925781	-368.3750610351562	
164	1.63	-1126.665161132812	953.1885986328125	-491.8917541503906	-1047.116821289062	956.5534057617188	-609.4910278320312	-1084.305297851562	1061.824340820312	-543.9384155273438	-848.8912963867188	1240.815185546875	-399.0013427734375	-1087.199951171875	1186.799560546875	-557.7127685546875	-1030.333984375	1453.074584960938	-506.0700378417969	-873.8892822265625	1356.2265625	-418.8364868164062	-1138.832275390625	1335.675415039062	-463.1672058105469	-998.4414672851562	1406.26025390625	-609.9194946289062	-865.3656005859375	1416.905517578125	-612.0560913085938	-810.71484375	1297.612182617188	-696.5595703125	-777.482177734375	1076.237670898438	-703.3818969726562	-880.65771484375	1066.394165039062	-711.5103759765625	-760.2574462890625	868.3343505859375	-622.6919555664062	-756.1050415039062	855.1693725585938	-695.9223022460938	-759.6375732421875	987.4173583984375	-698.5020141601562	-767.6136474609375	698.8206787109375	-630.82373046875	-758.1272583007812	774.263916015625	-694.03076171875	-749.1911010742188	776.986328125	-623.498046875	-1059.453247070312	1412.538452148438	-331.6534423828125	-1118.794311523438	1353.191162109375	-279.9733581542969	-1171.816040039062	1069.122192382812	-235.796875	-1195.977416992188	1055.062255859375	-297.9637756347656	-1073.720947265625	862.2272338867188	-222.4017486572266	-1159.883178710938	850.0689697265625	-211.4320526123047	-1176.728393554688	1010.442504882812	-226.5972900390625	-1082.864013671875	703.2785034179688	-218.7059020996094	-1071.7421875	761.9935302734375	-204.8600158691406	-1147.869262695312	762.3093872070312	-205.3614044189453	-1000.39404296875	1643.045532226562	-387.2470397949219	-802.2024536132812	1651.712524414062	-448.0504760742188	-871.5584106445312	1655.439453125	-336.9996643066406	-919.1773071289062	1643.292724609375	-545.916015625	-871.5149536132812	847.7313232421875	-632.686279296875	-1090.8515625	870.2327270507812	-294.1539001464844	-978.5708618164062	917.5081176757812	-312.1012878417969	-827.8161010742188	889.1494140625	-516.1300048828125	-934.0589599609375	427.3197631835938	-581.8734741210938	-883.728515625	576.9566040039062	-591.6041259765625	-1039.79443359375	32.68452835083008	-597.7047119140625	-955.590087890625	273.6174011230469	-583.5921630859375	-905.6336059570312	49.50860595703125	-405.961669921875	-981.4817504882812	53.20629501342773	-430.3165893554688	-913.64453125	48.81642532348633	-518.2938842773438	-1114.552612304688	32.9810791015625	-592.1152954101562	-922.2752685546875	521.232177734375	-203.5328063964844	-1011.391357421875	761.6407470703125	-237.3082427978516	-1029.628784179688	110.1552505493164	-281.3531494140625	-958.46728515625	376.0005187988281	-209.5967254638672	-833.9508056640625	78.70631408691406	-191.1588745117188	-860.5213623046875	92.24336242675781	-257.3810729980469	-938.9161376953125	87.98262786865234	-186.5148773193359	-1054.375610351562	116.2094802856445	-359.6792602539062	
165	1.64	-1124.0498046875	952.7776489257812	-489.6177673339844	-1044.855224609375	956.0905151367188	-607.486572265625	-1081.579467773438	1061.522827148438	-541.9508666992188	-845.9008178710938	1240.304077148438	-397.4967041015625	-1084.381103515625	1186.555419921875	-555.7966918945312	-1027.263061523438	1452.800537109375	-504.1461486816406	-870.8641967773438	1355.747680664062	-417.14306640625	-1135.815307617188	1335.461547851562	-461.4130249023438	-995.5911254882812	1406.081909179688	-608.0316772460938	-862.4871215820312	1416.672241210938	-610.3594970703125	-808.2250366210938	1297.553833007812	-695.3253173828125	-775.4844970703125	1076.097290039062	-702.89453125	-878.6819458007812	1066.47998046875	-710.753662109375	-758.3850708007812	868.1854858398438	-622.2369384765625	-754.431884765625	854.9736328125	-695.4376220703125	-757.7823486328125	987.2305908203125	-698.0643920898438	-766.0598754882812	698.6930541992188	-630.1970825195312	-756.5707397460938	774.0700073242188	-693.5193481445312	-747.4624633789062	776.8222045898438	-623.0265502929688	-1056.410522460938	1412.177490234375	-329.851806640625	-1116.01953125	1352.9970703125	-278.3502502441406	-1170.354370117188	1069.039184570312	-234.9669952392578	-1194.643920898438	1055.241333007812	-297.1875	-1072.945190429688	861.7357177734375	-222.4233551025391	-1159.135131835938	849.8514404296875	-211.2748260498047	-1175.477783203125	1010.358581542969	-225.943115234375	-1082.604736328125	702.7969360351562	-219.3442993164062	-1071.629516601562	761.4219360351562	-205.3904266357422	-1147.40087890625	761.9911499023438	-205.6154174804688	-997.151123046875	1642.631713867188	-385.0856628417969	-798.7655639648438	1651.019775390625	-445.3368530273438	-868.3945922851562	1654.645263671875	-334.5057067871094	-915.557373046875	1643.119262695312	-543.54638671875	-869.6478271484375	847.3978881835938	-631.37646484375	-1087.468994140625	870.413330078125	-291.8515014648438	-975.24609375	917.6739501953125	-310.410888671875	-825.3699340820312	888.7045288085938	-514.9866333007812	-932.7696533203125	427.0636596679688	-580.8533935546875	-882.2457275390625	576.679443359375	-590.4741821289062	-1039.804077148438	32.72541809082031	-597.6498413085938	-954.9178466796875	273.4015197753906	-583.017333984375	-905.4943237304688	49.29157638549805	-406.0657348632812	-981.4054565429688	53.00182342529297	-430.322998046875	-913.6681518554688	48.57445526123047	-518.4445190429688	-1114.535034179688	33.06591796875	-592.0485229492188	-917.3905639648438	521.9620971679688	-200.7178497314453	-1007.343872070312	762.1732177734375	-234.9371032714844	-1019.172790527344	107.911994934082	-272.4726257324219	-951.5441284179688	376.0864562988281	-204.5661926269531	-822.2772216796875	79.66133117675781	-183.9426727294922	-849.6161499023438	92.51248931884766	-250.0153961181641	-927.278564453125	87.33945465087891	-178.4278564453125	-1044.792602539062	113.4218826293945	-350.7009887695312	
166	1.65	-1121.390502929688	952.2305297851562	-487.2748107910156	-1042.512573242188	955.5810546875	-605.393798828125	-1078.811279296875	1061.142456054688	-539.8486328125	-842.8014526367188	1239.712036132812	-395.9107666015625	-1081.514892578125	1186.232055664062	-553.7381591796875	-1024.109497070312	1452.446899414062	-502.120849609375	-867.7335815429688	1355.18408203125	-415.3794250488281	-1132.726196289062	1335.166870117188	-459.5254516601562	-992.6822509765625	1405.8095703125	-606.0452270507812	-859.5364379882812	1416.350830078125	-608.5919189453125	-805.7155151367188	1297.39697265625	-694.0346069335938	-773.448486328125	1075.863647460938	-702.3761596679688	-876.6516723632812	1066.46630859375	-709.97607421875	-756.4221801757812	867.99365234375	-621.6607666015625	-752.6473999023438	854.705810546875	-694.8228759765625	-755.8610229492188	986.9593505859375	-697.5640258789062	-764.3673095703125	698.5128784179688	-629.3375854492188	-754.9107055664062	773.7904052734375	-692.8280639648438	-745.5975952148438	776.6312866210938	-622.3756713867188	-1053.257568359375	1411.707885742188	-327.9238586425781	-1113.12060546875	1352.688720703125	-276.5892639160156	-1168.796264648438	1068.850341796875	-234.0413970947266	-1193.205078125	1055.312255859375	-296.3121032714844	-1072.103515625	861.1398315429688	-222.336669921875	-1158.342651367188	849.5376586914062	-211.0539093017578	-1174.146606445312	1010.170104980469	-225.1921844482422	-1082.309692382812	702.2166137695312	-219.8314056396484	-1071.361206054688	760.7556762695312	-205.7498474121094	-1146.898559570312	761.5784301757812	-205.7844085693359	-993.8880615234375	1642.115600585938	-382.8299865722656	-795.3262939453125	1650.299194335938	-442.5018005371094	-865.242919921875	1653.789184570312	-331.8983459472656	-911.91162109375	1642.873291015625	-541.0735473632812	-867.6649780273438	847.051025390625	-629.98876953125	-1083.9970703125	870.46484375	-289.4910583496094	-971.8201904296875	917.7218627929688	-308.6196594238281	-822.83251953125	888.2055053710938	-513.7559814453125	-931.4193725585938	426.7816467285156	-579.8270874023438	-880.6747436523438	576.3833618164062	-589.3390502929688	-1039.811279296875	32.77173233032227	-597.592529296875	-954.1890869140625	273.1783752441406	-582.4505615234375	-905.3456420898438	49.10092544555664	-406.2086486816406	-981.2864990234375	52.82812881469727	-430.333740234375	-913.667236328125	48.33939361572266	-518.6240844726562	-1114.517944335938	33.15961456298828	-591.9730834960938	-912.6376953125	522.4644775390625	-197.928955078125	-1003.371765136719	762.5357055664062	-232.5735626220703	-1008.475280761719	105.4974517822266	-263.364013671875	-944.6543579101562	376.0019226074219	-199.4941864013672	-810.4354858398438	80.60207366943359	-176.4504699707031	-838.51416015625	92.71183776855469	-242.3863677978516	-915.4371337890625	86.64408874511719	-170.0943145751953	-1034.876586914062	110.3451232910156	-341.4528198242188	
